/* XPM */
static const char * dotoff_xpm[] = {
/* width height num_colors chars_per_pixel */
"2 10 2 1",
/* colors */
" 	c None",
".	c #808080",
/* pixels */
"  ",
"  ",
"  ",
"  ",
"..",
"..",
"  ",
"  ",
"  ",
"  "};
