/* XPM */
static const char * flagon_xpm[] = {
/* width height num_colors chars_per_pixel */
"11 10 6 1",
/* colors */
" 	c None",
".	c red",
"X	c #800000",
"o	c #808080",
"O	c white",
"+	c #b8a0a0",
/* pixels */
"     .     ",
"    X o    ",
"   O.+o+   ",
"   oX. o   ",
"  .+.X+oo  ",
" .X.ooo o  ",
"Xoo+    o+ ",
"        +o ",
"         oo",
"          o"};
