/* XPM */
static const char * macro_play_xpm[] = {
"17 16 5 1",
" 	s None	c None",
".	c black",
"X	c gray",
"o	c gray40",
"O	c green3",
"XXXXXXXXXXXXXXXXX",
"XXXXXXXXXXXXXXXXX",
"XXXXXOOXXXXXXXXXX",
"XXXXXOOOXXXXXXXXX",
"XXXXXOOOOXXXXXXXX",
"XXXXXOOOOOXXXXXXX",
"XXXXXOOOOOOXXXXXX",
"XXXXXOOOOOOOXXXXX",
"XXXXXOOOOOOooXXXX",
"XXXXXOOOOOooXXXXX",
"XXXXXOOOOooXXXXXX",
"XXXXXOOOooXXXXXXX",
"XXXXXOOooXXXXXXXX",
"XXXXXXooXXXXXXXXX",
"XXXXXXXXXXXXXXXXX",
"XXXXXXXXXXXXXXXXX"};
