/* XPM */
static const char * macro_rec_xpm[] = {
"17 16 5 1",
" 	s None	c None",
".	c black",
"X	c gray",
"o	c gray40",
"O	c red",
"XXXXXXXXXXXXXXXXX",
"XXXXXXXXXXXXXXXXX",
"XXXXXXXOOOXXXXXXX",
"XXXXXOOOOOOOXXXXX",
"XXXXOOOOOOOOOXXXX",
"XXXXOOOOOOOOOoXXX",
"XXXOOOOOOOOOOOXXX",
"XXXOOOOOOOOOOOoXX",
"XXXOOOOOOOOOOOoXX",
"XXXXOOOOOOOOOooXX",
"XXXXOOOOOOOOOoXXX",
"XXXXXOOOOOOOooXXX",
"XXXXXXoOOOoooXXXX",
"XXXXXXXXoooXXXXXX",
"XXXXXXXXXXXXXXXXX",
"XXXXXXXXXXXXXXXXX"};
