/* XPM */
static const char *mail_xpm[] = {
/* width height num_colors chars_per_pixel */
"    15    12        5            1",
/* colors */
". c #0000f8",
"# c #808080",
"a c #b0b0b0",
"b c #c0c0c0",
"c c #f8fcf8",
/* pixels */
"##############a",
"#cccccccccc..#a",
"#c##b##cccc..#b",
"#c#b#bccccc..#b",
"#c#b#b#cccccc#b",
"#cccccccccccc#b",
"#cccc#b##b#cc#b",
"#cccc##b##ccc#b",
"#cccc###b##cc#b",
"#cccccccccccc#b",
"##############b",
"aabbbbbbbbbbbbb"
};
