/* XPM */
static const char * marks_xpm[] = {
"18 18 5 1",
" 	c None",
".	c black",
"X	c white",
"o	c #b0b0b0",
"O	c blue",
"  ...........     ",
"  .XooooXXX.X..   ",
"  .XXXXXXXX.XX..  ",
"  .XooooXXX.XXX.  ",
"  .XXXOOOOO.....  ",
"  .XooooOOOXXXX.  ",
"  .XXXOOOOOXXXX.  ",
"  .XXXOOOOOXXXX.  ",
"  .XoooOooooooX.  ",
"  .XXXOOOOOXXXX.  ",
"  .XXoooooOoXXX.  ",
"  .XXXOOOOOXXXX.  ",
"  .XooooOoooooX.  ",
"  .XXXOOOOOXXXX.  ",
"  .XXXOOOOOXXXX.  ",
"  .XooOOooOoXXX.  ",
"  .XXXOOOOOXXXX.  ",
"  ..............  "};
