/* XPM */
static const char * markz_xpm[] = {
"18 18 5 1",
" 	c None",
".	c black",
"X	c white",
"o	c #b0b0b0",
"O	c blue",
"  ...........     ",
"  .XooooXXX.X..   ",
"  .XXXXXXXX.XX..  ",
"  .XooooXXX.XXX.  ",
"  .XXXXXXXX.....  ",
"  .XoooooXXXXXX.  ",
"  .XXXXXXXXXXXX.  ",
"  .OOOOOOOOOOOO.  ",
"  .OooooOOooooO.  ",
"  .OOOOOOOOOOOO.  ",
"  .OOoooooooOOO.  ",
"  .OOOOOOOOOOOO.  ",
"  .OooOoooooooO.  ",
"  .OOOOOOOOOOOO.  ",
"  .XXXXXXXXXXXX.  ",
"  .XooXXooXoXXX.  ",
"  .XXXXXXXXXXXX.  ",
"  ..............  "};
