/* XPM */
static const char* search_forw_xpm[]={
"22 22 6 1",
"c c #828282",
"# c #000000",
"b c #dfdfdf",
". c None",
"a c #ffffff",
"d c #a6a6a6",
"......................",
"......................",
"................#.....",
"...########.....#.....",
"...#aaaaaab#..#####...",
"...#aaaaaa.b#...#.....",
"...#aaaaaa.ab#..#.....",
"...#aaaaaa.####.......",
"...#aaaaaaaaa.#.......",
"...#aaaaaaa####.......",
"...#aaaaaa#c..c#......",
"...#aaaaa#cdd.cc#.....",
"...#aaaaa#.d..c.#.....",
"...#aaaaa#....c.#.....",
"...#aaaaa#c..dcc#.....",
"...#aaaaaa#c..c#c.....",
"...#aaaaaaa####c##....",
"...#aaaaaaaaaa#.###...",
"...############..##...",
"......................",
"......................",
"......................"};
