/* XPM */
static const char*splitv_xpm[]={
"18 18 5 1",
"c c #a0a0a0",
"b c #b0b0b0",
"# c #000000",
". c None",
"a c #ffffff",
"..###########.....",
"..#a#aaa#aa#a##...",
"..#a#aaa#aa#aa##..",
"..#a#aaa#aa#aaa#..",
"..#a#####aa#####..",
"..#abbbb#aaaaaa#..",
"..#aaaaa#aaaaaa#..",
"..#aaaaa#aaaaaa#..",
"..#abbba#abbbba#..",
"..#aaaaa#aaaaaa#..",
"..#ccbbb#aabaaa#..",
"..#aaaaa#aaaaaa#..",
"..#abbbb#abbbba#..",
"..#aaaaa#aaaaaa#..",
"..#aaaaa#aaaaaa#..",
"..#abbaa#aabaaa#..",
"..#aaaaa#aaaaaa#..",
"..##############.."};
