/* XPM */
static const char*splith_xpm[]={
"18 18 5 1",
"c c #a0a0a0",
"b c #b0b0b0",
"# c #000000",
". c None",
"a c #ffffff",
"..###########.....",
"..#abbbbaaa#a##...",
"..#aaaaaaaa#aa##..",
"..#abbbbaaa#aaa#..",
"..#aaaaaaaa#####..",
"..#abbbbaaaaaaa#..",
"..#aaaaaaaaaaaa#..",
"..#aaccccccaaaa#..",
"..#aaaaaaaaaaaa#..",
"..##############..",
"..#aabbbbba#a#a#..",
"..#aaaaaaaa#aa##..",
"..#abbbbabb#aaa#..",
"..#aaaaaaaa#####..",
"..#aaaaaaaaaaaa#..",
"..#abbaabbabaaa#..",
"..#aaaaaaaaaaaa#..",
"..##############.."};
